<svg xmlns="http://www.w3.org/2000/svg" width="817" height="133" style="isolation:isolate">
  <defs>
    <clipPath id="a">
      <path d="M0 0h817v133H0z"/>
    </clipPath>
  </defs>
  <g fill="#FFF" clip-path="url(#a)">
    <path d="M240.086 23.545v26.14h-32.734v65.467h-26.18V49.684H148.44v-26.14h91.646zm32.734 91.597h-26.19V49.684h26.19v65.468-.01zm39.278-26.18h32.733v26.19H312.1c-18.08 0-32.734-14.656-32.734-32.734S294.02 49.684 312.1 49.684h32.733v26.19H312.1c-3.615 0-6.545 2.93-6.545 6.544 0 3.614 2.93 6.545 6.545 6.545zm69.318 6.545h-3.86v19.635h-26.18V23.545h26.19v45.823h6.544c3.603-.027 6.517-2.94 6.545-6.544v-13.14h26.19v13.09c.14 8.69-3.32 17.054-9.56 23.106l-.658.658 13.47 28.604h-29.442l-9.24-19.635zm68.15-3.272H482.3v22.947h-58.92V49.684h58.913V72.63H449.57v3.273h19.635v13.09H449.57v3.272-.03zm85.104-16.372v39.28h-26.19v-39.28h-19.634v-26.18h65.467v26.19H534.67v-.01zm52.367 16.372h32.734v22.947h-58.91V49.684h26.19v42.55h-.01zm65.467 0h32.734v22.947h-58.923V49.684h58.913V72.63h-32.724v3.273h19.635v13.09H652.5v3.272-.03zm72.002 22.907h-32.723V92.195h32.733q3.273 0 3.273-1.636 0-1.64-3.28-1.64h-6.544q-26.19 0-26.19-19.637t26.19-19.636H750.7V72.6h-32.74q-3.272 0-3.272 1.637 0 1.636 3.272 1.636h6.544q26.19 0 26.19 19.634 0 19.635-26.19 19.635zm65.468 0H757.24V92.195h32.734q3.272 0 3.272-1.636 0-1.64-3.272-1.64h-6.545q-26.19 0-26.19-19.637t26.19-19.636h32.74V72.6h-32.74q-3.277 0-3.277 1.637 0 1.636 3.272 1.636h6.542q26.19 0 26.19 19.634 0 19.635-26.19 19.635zM74.342 0C50.516-.097 28.524 12.778 16.946 33.602L.843 17.5v45.493h45.494L26.743 43.4c9.1-17.5 26.598-29.403 47.6-29.403 28.702 0 52.497 23.795 52.497 52.498 0 28.703-23.795 52.498-52.498 52.498-23.096 0-42.002-14.696-49.694-35H9.952c8.823 32.16 40.062 52.847 73.115 48.415 33.053-4.43 57.74-32.614 57.78-65.963C140.847 30.09 110.747 0 74.342 0zM63.846 34.998v35.697L96.77 90.3l5.597-9.1-28.025-16.81V34.998H63.846z"/>
  </g>
</svg>
