<svg xmlns="http://www.w3.org/2000/svg" id="Layer_1" data-name="Layer 1" viewBox="0 0 817.21 133.31">
  <defs>
    <style>
      .cls-1{opacity:1;isolation:isolate;}
    </style>
  </defs>
  <path d="M239.8 23.6v26.2h-32.81v65.62h-26.24V49.8h-32.81V23.6h91.86zm32.81 91.81h-26.25V49.8h26.25v65.62zm39.37-26.24h32.81v26.25h-32.81a32.81 32.81 0 0 1 0-65.62h32.81v26.25h-32.81a6.56 6.56 0 0 0 0 13.12zm69.48 6.56h-3.87v19.68h-26.24V23.6h26.25v45.93h6.56a6.61 6.61 0 0 0 6.56-6.56V49.8h26.25v13.12a31.55 31.55 0 0 1-9.58 23.16l-.66.66 13.5 28.67h-29.51zm68.31-3.28h32.81v23h-59.06V49.8h59.05v23h-32.8v3.28h19.68V89.2h-19.68v3.28zm85.3-16.41v39.37h-26.25V76.04h-19.68V49.8h65.62v26.25h-19.69zm52.49 16.41h32.81v23h-59.05V49.8h26.25v42.65zm65.62 0h32.81v23h-59.06V49.8h59.05v23h-32.8v3.28h19.68V89.2h-19.68v3.28zm72.17 22.96h-32.8v-23h32.81q3.28 0 3.28-1.64t-3.28-1.64h-6.56q-26.25 0-26.25-19.68t26.25-19.68h32.81v23h-32.82q-3.28 0-3.28 1.64t3.28 1.64h6.56q26.25 0 26.25 19.68t-26.25 19.68zm65.62 0h-32.81v-23h32.81q3.28 0 3.28-1.64t-3.28-1.64h-6.56q-26.25 0-26.25-19.68t26.25-19.68h32.82v23h-32.82q-3.28 0-3.28 1.64t3.28 1.64h6.56q26.25 0 26.25 19.68t-26.25 19.68z"/>
  <path id="history" d="M73.67 0a65.52 65.52 0 0 0-57.53 33.68L0 17.54v45.6h45.6L25.96 43.5c9.12-17.54 26.66-29.47 47.71-29.47 28.77 0 52.62 23.85 52.62 52.62s-23.85 52.62-52.62 52.62c-23.15 0-42.1-14.73-49.81-35.08H9.13a66.79 66.79 0 0 0 131.2-17.59c0-36.44-30.17-66.6-66.66-66.6zM63.15 35.08v35.78l33 19.65 5.61-9.12-28.09-16.85V35.08H63.15z" class="cls-1"/>
</svg>
